<?xml version="1.0" encoding="UTF-8" standalone="no"?>
<svg
   width="48"
   height="48"
   version="1"
   id="svg20"
   xmlns="http://www.w3.org/2000/svg"
   xmlns:svg="http://www.w3.org/2000/svg">
  <defs
     id="defs20" />
  <rect
     style="opacity:0.2"
     width="32"
     height="40"
     x="8"
     y="5"
     rx="6"
     ry="6"
     id="rect1" />
  <rect
     style="fill:#4f4f4f"
     width="32"
     height="40"
     x="8"
     y="4"
     rx="6"
     ry="6"
     id="rect3" />
  <circle
     style="opacity:0.2"
     cx="-10"
     cy="-24"
     r="2"
     transform="matrix(0,-1,-1,0,0,0)"
     id="circle3" />
  <circle
     style="fill:#ff4d4d"
     cx="-9"
     cy="-24"
     r="2"
     transform="matrix(0,-1,-1,0,0,0)"
     id="circle4" />
  <circle
     style="opacity:0.4"
     cx="-23"
     cy="-24"
     r="8"
     transform="matrix(0,-1,-1,0,0,0)"
     id="circle5" />
  <circle
     style="opacity:0.2"
     cx="-24"
     cy="24"
     r="6"
     transform="rotate(-90)"
     id="circle6" />
  <circle
     style="fill:#00b1c4"
     cx="-23"
     cy="24"
     r="6"
     transform="rotate(-90)"
     id="circle7" />
  <circle
     style="opacity:0.2"
     cx="-24"
     cy="-24"
     r="3"
     transform="matrix(0,-1,-1,0,0,0)"
     id="circle8" />
  <circle
     style="fill:#70f4ff"
     cx="-23"
     cy="-24"
     r="3"
     transform="matrix(0,-1,-1,0,0,0)"
     id="circle9" />
  <circle
     style="opacity:0.5"
     cx="24"
     cy="37"
     r="1"
     id="circle10" />
  <circle
     style="opacity:0.5"
     cx="24"
     cy="37"
     r="1"
     id="circle11" />
  <circle
     style="opacity:0.5"
     cx="24"
     cy="37"
     r="1"
     id="circle12" />
  <circle
     style="opacity:0.5"
     cx="24"
     cy="37"
     r="1"
     id="circle13" />
  <circle
     style="opacity:0.5"
     cx="24"
     cy="40"
     r="1"
     id="circle14" />
  <circle
     style="opacity:0.5"
     cx="24"
     cy="40"
     r="1"
     id="circle15" />
  <circle
     style="opacity:0.5"
     cx="24"
     cy="40"
     r="1"
     id="circle16" />
  <path
     style="opacity:0.1;fill:#ffffff"
     d="M 14,4 C 10.676,4 8,6.676 8,10 v 1 C 8,7.676 10.676,5 14,5 h 20 c 3.324,0 6,2.676 6,6 V 10 C 40,6.676 37.324,4 34,4 Z"
     id="path16" />
  <path
     style="opacity:0.2;fill:#ffffff"
     d="M 24,7 A 2,2 0 0 0 22,9 2,2 0 0 0 22.064453,9.4960938 2,2 0 0 1 24,8 2,2 0 0 1 25.935547,9.5039062 2,2 0 0 0 26,9 2,2 0 0 0 24,7 Z"
     id="path17" />
  <path
     style="opacity:0.1;fill:#ffffff"
     d="m 24,17 a 6,6 0 0 0 -6,6 6,6 0 0 0 0.02539,0.498047 A 6,6 0 0 1 24,18 6,6 0 0 1 29.974609,23.501953 6,6 0 0 0 30,23 6,6 0 0 0 24,17 Z"
     id="path18" />
  <path
     style="opacity:0.2;fill:#ffffff"
     d="m 23.999995,20 a 3,3 0 0 0 -3,3 3,3 0 0 0 0.04297,0.486328 A 3,3 0 0 1 23.999995,21 3,3 0 0 1 26.957026,23.513672 3,3 0 0 0 26.999995,23 a 3,3 0 0 0 -3,-3 z"
     id="path19" />
  <path
     style="opacity:0.1;fill:#ffffff"
     d="m 7,11 c -0.554,0 -1,0.446 -1,1 v 1 c 0,-0.554 0.446,-1 1,-1 h 2 c 0.554,0 1,0.446 1,1 V 12 C 10,11.446 9.554,11 9,11 Z"
     id="path20" />
</svg>
